# xmcd CD database file
#
# Track frame offsets:
#	150
#	33709
#	58070
#	84670
#	102203
#	108184
#	130611
#	149031
#	166725
#
# Disc length: 2820 seconds
#
# Revision: 0
# Processed by: cddbd v1.5.2PL0 Copyright (c) Steve Scherf et al.
# Submitted via: CDex 1.95
#
DISCID=770b0209
DTITLE=David Tixier - Universal Citizen
DYEAR=2018
DGENRE=Jazz
TTITLE0=David Tixier - Far From The World
TTITLE1=David Tixier - Tokyo
TTITLE2=David Tixier - Lost Among Ghosts
TTITLE3=David Tixier - Tribute To An Old Man
TTITLE4=David Tixier - Arising Twilight
TTITLE5=David Tixier - The Fall
TTITLE6=David Tixier - Nothing's Real
TTITLE7=David Tixier - The Wayward Hero
TTITLE8=David Tixier - Universal Citizen
EXTD=YEAR: 2018
EXTT0=
EXTT1=
EXTT2=
EXTT3=
EXTT4=
EXTT5=
EXTT6=
EXTT7=
EXTT8=
PLAYORDER=
